<svg width="297" height="37" viewBox="0 0 297 37" fill="none" xmlns="http://www.w3.org/2000/svg">
<path d="M0.536 36L7.256 2.496H27.752L26.792 7.104H11.528L9.608 16.8H23.24L22.328 21.408H8.696L6.68 31.392H22.616L21.704 36H0.536ZM46.7851 36C45.6651 36 44.7691 35.712 44.0971 35.136C43.4571 34.56 43.1371 33.76 43.1371 32.736C43.1371 32.192 43.1851 31.728 43.2811 31.344L43.4731 30.432H43.2811C42.2571 32.48 41.1211 34.016 39.8731 35.04C38.6571 36.064 37.0891 36.576 35.1691 36.576C32.8651 36.576 31.0891 35.744 29.8411 34.08C28.5931 32.416 27.9691 30.192 27.9691 27.408C27.9691 25.232 28.2411 23.12 28.7851 21.072C29.3291 19.024 30.1131 17.216 31.1371 15.648C32.1931 14.08 33.4571 12.832 34.9291 11.904C36.4011 10.944 38.0651 10.464 39.9211 10.464C41.5531 10.464 42.9611 10.896 44.1451 11.76C45.3291 12.592 46.0491 13.744 46.3051 15.216H46.5451L49.4731 0.48H54.4651L48.1771 31.824H51.3931L50.5771 36H46.7851ZM37.1851 32.304C38.1771 32.304 39.0571 32.08 39.8251 31.632C40.5931 31.152 41.2971 30.576 41.9371 29.904C43.3451 28.4 44.2571 26.56 44.6731 24.384L45.5851 19.824C45.8731 18.384 45.6171 17.184 44.8171 16.224C44.0171 15.232 42.6731 14.736 40.7851 14.736C38.9931 14.736 37.5371 15.312 36.4171 16.464C35.2971 17.584 34.5131 19.248 34.0651 21.456L33.3451 24.96C33.2811 25.344 33.2171 25.776 33.1531 26.256C33.1211 26.704 33.1051 27.136 33.1051 27.552C33.1051 28.96 33.4411 30.112 34.1131 31.008C34.7851 31.872 35.8091 32.304 37.1851 32.304ZM65.0701 11.04L62.0461 26.208C61.9501 26.656 61.8701 27.104 61.8061 27.552C61.7741 28 61.7581 28.4 61.7581 28.752C61.7581 29.872 61.9981 30.736 62.4781 31.344C62.9581 31.952 63.7581 32.256 64.8781 32.256C66.4781 32.256 67.9021 31.552 69.1501 30.144C69.8861 29.312 70.4941 28.4 70.9741 27.408C71.4861 26.384 71.8381 25.376 72.0301 24.384L74.7181 11.04H79.7101L75.5341 31.824H78.7501L77.9341 36H74.0941C72.9741 36 72.0941 35.712 71.4541 35.136C70.8461 34.528 70.5421 33.712 70.5421 32.688C70.5421 32.272 70.5901 31.792 70.6861 31.248L70.7821 30.672H70.5421C69.6141 32.592 68.5421 34.064 67.3261 35.088C66.1101 36.08 64.6061 36.576 62.8141 36.576C60.7661 36.576 59.2141 35.984 58.1581 34.8C57.1341 33.616 56.6221 31.968 56.6221 29.856C56.6221 29.312 56.6541 28.768 56.7181 28.224C56.7821 27.68 56.8781 27.088 57.0061 26.448L60.0781 11.04H65.0701ZM102.285 36C101.165 36 100.269 35.712 99.5971 35.136C98.9571 34.56 98.6371 33.76 98.6371 32.736C98.6371 32.192 98.6851 31.728 98.7811 31.344L98.9731 30.432H98.7811C97.7571 32.48 96.6211 34.016 95.3731 35.04C94.1571 36.064 92.5891 36.576 90.6691 36.576C88.3651 36.576 86.5891 35.744 85.3411 34.08C84.0931 32.416 83.4691 30.192 83.4691 27.408C83.4691 25.232 83.7411 23.12 84.2851 21.072C84.8291 19.024 85.6131 17.216 86.6371 15.648C87.6931 14.08 88.9571 12.832 90.4291 11.904C91.9011 10.944 93.5651 10.464 95.4211 10.464C97.0531 10.464 98.4611 10.896 99.6451 11.76C100.829 12.592 101.549 13.744 101.805 15.216H102.045L102.861 11.04H107.853L103.677 31.824H106.893L106.077 36H102.285ZM92.5891 32.304C93.6131 32.304 94.5091 32.08 95.2771 31.632C96.0771 31.184 96.7971 30.608 97.4371 29.904C98.8131 28.432 99.7251 26.576 100.173 24.336L101.181 19.296C101.277 18.752 101.245 18.208 101.085 17.664C100.925 17.12 100.637 16.64 100.221 16.224C99.8051 15.776 99.2611 15.424 98.5891 15.168C97.9491 14.88 97.2131 14.736 96.3811 14.736C94.5251 14.736 93.0371 15.312 91.9171 16.464C90.7971 17.584 90.0131 19.248 89.5651 21.456L88.8451 24.96C88.7811 25.344 88.7171 25.776 88.6531 26.256C88.6211 26.736 88.6051 27.168 88.6051 27.552C88.6051 28.96 88.9251 30.112 89.5651 31.008C90.2371 31.872 91.2451 32.304 92.5891 32.304ZM110.874 36L115.866 11.04H120.858L119.802 16.368H120.09C120.378 15.728 120.73 15.088 121.146 14.448C121.594 13.808 122.122 13.248 122.73 12.768C123.338 12.256 124.026 11.84 124.794 11.52C125.594 11.2 126.49 11.04 127.482 11.04H128.874L127.866 15.984H126.186C123.978 15.984 122.266 16.512 121.05 17.568C119.834 18.624 119.05 20.064 118.698 21.888L115.866 36H110.874ZM148.129 36C147.009 36 146.113 35.712 145.441 35.136C144.801 34.56 144.481 33.76 144.481 32.736C144.481 32.192 144.529 31.728 144.625 31.344L144.817 30.432H144.625C143.601 32.48 142.465 34.016 141.217 35.04C140.001 36.064 138.433 36.576 136.513 36.576C134.209 36.576 132.433 35.744 131.185 34.08C129.937 32.416 129.313 30.192 129.313 27.408C129.313 25.232 129.585 23.12 130.129 21.072C130.673 19.024 131.457 17.216 132.481 15.648C133.537 14.08 134.801 12.832 136.273 11.904C137.745 10.944 139.409 10.464 141.265 10.464C142.897 10.464 144.305 10.896 145.489 11.76C146.673 12.592 147.393 13.744 147.649 15.216H147.889L150.817 0.48H155.809L149.521 31.824H152.737L151.921 36H148.129ZM138.529 32.304C139.521 32.304 140.401 32.08 141.169 31.632C141.937 31.152 142.641 30.576 143.281 29.904C144.689 28.4 145.601 26.56 146.017 24.384L146.929 19.824C147.217 18.384 146.961 17.184 146.161 16.224C145.361 15.232 144.017 14.736 142.129 14.736C140.337 14.736 138.881 15.312 137.761 16.464C136.641 17.584 135.857 19.248 135.409 21.456L134.689 24.96C134.625 25.344 134.561 25.776 134.497 26.256C134.465 26.704 134.449 27.136 134.449 27.552C134.449 28.96 134.785 30.112 135.457 31.008C136.129 31.872 137.153 32.304 138.529 32.304ZM166.846 36.576C164.03 36.576 161.758 35.696 160.03 33.936C158.302 32.176 157.438 29.616 157.438 26.256C157.438 24.112 157.758 22.08 158.398 20.16C159.038 18.24 159.918 16.56 161.038 15.12C162.19 13.68 163.55 12.544 165.118 11.712C166.686 10.88 168.414 10.464 170.302 10.464C173.118 10.464 175.39 11.344 177.118 13.104C178.846 14.864 179.71 17.424 179.71 20.784C179.71 22.96 179.39 25.008 178.75 26.928C178.11 28.816 177.214 30.48 176.062 31.92C174.942 33.36 173.598 34.496 172.03 35.328C170.462 36.16 168.734 36.576 166.846 36.576ZM167.23 32.352C168.798 32.352 170.158 31.776 171.31 30.624C172.494 29.472 173.31 27.792 173.758 25.584L174.574 21.6C174.638 21.344 174.686 21.056 174.718 20.736C174.75 20.416 174.766 20.08 174.766 19.728C174.766 18.192 174.35 16.976 173.518 16.08C172.718 15.152 171.518 14.688 169.918 14.688C168.35 14.688 166.974 15.264 165.79 16.416C164.638 17.568 163.838 19.248 163.39 21.456L162.574 25.44C162.51 25.728 162.462 26.032 162.43 26.352C162.398 26.64 162.382 26.96 162.382 27.312C162.382 28.848 162.782 30.08 163.582 31.008C164.414 31.904 165.63 32.352 167.23 32.352ZM217.927 2.496L212.983 27.072C212.375 30.08 211.159 32.416 209.335 34.08C207.543 35.744 205.159 36.576 202.183 36.576C199.463 36.576 197.335 35.808 195.799 34.272C194.263 32.704 193.415 30.64 193.255 28.08L198.103 27.12C198.199 28.56 198.567 29.728 199.207 30.624C199.847 31.488 200.871 31.92 202.279 31.92C203.751 31.92 204.951 31.488 205.879 30.624C206.839 29.76 207.511 28.368 207.895 26.448L211.783 6.912H201.175L202.087 2.496H217.927ZM238.551 36C237.431 36 236.535 35.712 235.863 35.136C235.223 34.56 234.903 33.76 234.903 32.736C234.903 32.192 234.951 31.728 235.047 31.344L235.239 30.432H235.047C234.023 32.48 232.887 34.016 231.639 35.04C230.423 36.064 228.855 36.576 226.935 36.576C224.631 36.576 222.855 35.744 221.607 34.08C220.359 32.416 219.735 30.192 219.735 27.408C219.735 25.232 220.007 23.12 220.551 21.072C221.095 19.024 221.879 17.216 222.903 15.648C223.959 14.08 225.223 12.832 226.695 11.904C228.167 10.944 229.831 10.464 231.687 10.464C233.319 10.464 234.727 10.896 235.911 11.76C237.095 12.592 237.815 13.744 238.071 15.216H238.311L239.127 11.04H244.119L239.943 31.824H243.159L242.343 36H238.551ZM228.855 32.304C229.879 32.304 230.775 32.08 231.543 31.632C232.343 31.184 233.063 30.608 233.703 29.904C235.079 28.432 235.991 26.576 236.439 24.336L237.447 19.296C237.543 18.752 237.511 18.208 237.351 17.664C237.191 17.12 236.903 16.64 236.487 16.224C236.071 15.776 235.527 15.424 234.855 15.168C234.215 14.88 233.479 14.736 232.647 14.736C230.791 14.736 229.303 15.312 228.183 16.464C227.063 17.584 226.279 19.248 225.831 21.456L225.111 24.96C225.047 25.344 224.983 25.776 224.919 26.256C224.887 26.736 224.871 27.168 224.871 27.552C224.871 28.96 225.191 30.112 225.831 31.008C226.503 31.872 227.511 32.304 228.855 32.304ZM247.14 36L252.132 11.04H257.124L256.068 16.368H256.308C257.236 14.448 258.324 12.992 259.572 12C260.82 10.976 262.372 10.464 264.228 10.464C266.308 10.464 267.86 11.056 268.884 12.24C269.94 13.424 270.468 15.072 270.468 17.184C270.468 17.728 270.436 18.272 270.372 18.816C270.308 19.328 270.212 19.904 270.084 20.544L267.828 31.824H270.852L270.036 36H266.244C265.188 36 264.34 35.728 263.7 35.184C263.092 34.64 262.788 33.856 262.788 32.832C262.788 32.64 262.788 32.48 262.788 32.352C262.788 32.192 262.82 31.968 262.884 31.68L265.044 20.88C265.236 19.92 265.332 19.04 265.332 18.24C265.332 17.12 265.076 16.272 264.564 15.696C264.052 15.088 263.22 14.784 262.068 14.784C260.404 14.784 258.948 15.488 257.7 16.896C256.996 17.664 256.388 18.56 255.876 19.584C255.364 20.576 255.012 21.568 254.82 22.56L252.132 36H247.14ZM273.069 36L273.885 31.872L289.533 15.168H277.245L278.061 11.04H296.349L295.533 15.168L279.837 31.872H292.845L292.029 36H273.069Z" fill="#080811"/>
</svg>
